<?xml version="1.0" encoding="UTF-8" standalone="no"?>
<!-- Created with Inkscape (http://www.inkscape.org/) -->
<svg id="svg1" height="262.2" viewBox="0,0,460.62991,262.20471" width="460.63" xmlns="http://www.w3.org/2000/svg" xmlns:svg="http://www.w3.org/2000/svg">
 <g id="g1">
  <path id="path1" d="m0 0h345.473v199.312h-345.473z" fill="#fff" transform="scale(1.3333333)"/>
  <path id="path2" d="m152.332 23.918h57.137v119.586h-57.137z" fill="#32cd32" fill-opacity=".498" stroke="#000" stroke-linecap="square" stroke-width="1.759" transform="scale(1.3333333)"/>
  <path id="path3" d="m209.469 23.918h62.449v119.586h-62.449z" fill="#118aef" fill-opacity=".498" transform="scale(1.3333333)"/>
  <path id="path4" d="m-209.469 23.918h-62.449v119.586h62.449z" fill="none" stroke="#000" stroke-linecap="square" stroke-width="1.76" transform="scale(-1.3333333 1.3333333)"/>
  <path id="path5" d="m120.441 143.504 31.621-.008.27-119.578h-66.437v119.586h26.574" fill="#78a9d3" fill-opacity=".498" stroke="#000" stroke-linecap="round" stroke-width="1.76" transform="scale(1.3333333)"/>
  <path id="path6" d="m-178.672 144.051v18.293" fill="none" stroke="#000" stroke-width="2.657" transform="scale(-1.3333333 1.3333333)"/>
  <path id="path7" d="m-174.922 166.094c0 2.07-1.676 3.75-3.75 3.75-2.07 0-3.75-1.68-3.75-3.75 0-2.074 1.68-3.75 3.75-3.75 2.074 0 3.75 1.676 3.75 3.75z" fill="none" stroke="#000" stroke-linecap="square" stroke-width="2.657" transform="scale(-1.3333333 1.3333333)"/>
  <path id="path8" d="m79.531 271.348v18.293" fill="none" stroke="#000" stroke-width="2.657" transform="matrix(0 1.3333333 1.3333333 0 0 0)"/>
  <path id="path9" d="m83.281 293.391c0 2.07-1.679 3.75-3.75 3.75-2.074 0-3.75-1.68-3.75-3.75 0-2.071 1.676-3.75 3.75-3.75 2.071 0 3.75 1.679 3.75 3.75z" fill="none" stroke="#000" stroke-linecap="square" stroke-width="2.657" transform="matrix(0 1.3333333 1.3333333 0 0 0)"/>
  <path id="path10" d="m281.387 58.395h7.601v1.371h-5.976v3.558h5.73v1.371h-5.73v4.36h6.125v1.367h-7.75zm17.383 4.738c.371-.668.816-1.16 1.332-1.477.515-.316 1.121-.472 1.82-.472.937 0 1.664.328 2.176.988.507.656.765 1.59.765 2.805v5.445h-1.492v-5.399c0-.863-.152-1.503-.461-1.921-.305-.422-.769-.629-1.398-.629-.77 0-1.375.254-1.821.765-.449.508-.671 1.203-.671 2.086v5.098h-1.489v-5.399c0-.867-.152-1.511-.461-1.921-.304-.422-.777-.629-1.418-.629-.757 0-1.359.257-1.804.773-.446.508-.668 1.203-.668 2.078v5.098h-1.492v-9.024h1.492v1.403c.34-.551.742-.961 1.215-1.223.472-.266 1.035-.394 1.687-.394s1.211.164 1.664.5c.465.332.805.816 1.024 1.449zm9.05-1.735h1.481v9.024h-1.481zm0-3.511h1.481v1.879h-1.481zm6.051.949v2.562h3.051v1.153h-3.051v4.898c0 .739.098 1.211.297 1.418.203.211.613.317 1.23.317h1.524v1.238h-1.524c-1.14 0-1.933-.211-2.367-.637-.433-.43-.652-1.207-.652-2.336v-4.898h-1.086v-1.153h1.086v-2.562zm6.469 0v2.562h3.051v1.153h-3.051v4.898c0 .739.098 1.211.297 1.418.203.211.613.317 1.234.317h1.52v1.238h-1.52c-1.144 0-1.933-.211-2.371-.637-.434-.43-.652-1.207-.652-2.336v-4.898h-1.086v-1.153h1.086v-2.562zm12.719 6.703v.727h-6.813c.063 1.019.367 1.8.918 2.336.551.531 1.32.796 2.301.796.57 0 1.121-.066 1.652-.207.539-.14 1.071-.351 1.598-.629v1.403c-.531.226-1.078.398-1.637.515-.558.118-1.125.176-1.699.176-1.441 0-2.582-.418-3.426-1.258-.836-.836-1.254-1.968-1.254-3.398 0-1.477.395-2.648 1.192-3.512.8-.871 1.875-1.304 3.23-1.304 1.215 0 2.172.39 2.875 1.175.711.778 1.063 1.84 1.063 3.18zm-1.481-.434c-.012-.812-.238-1.457-.683-1.941-.442-.484-1.028-.726-1.758-.726-.828 0-1.492.234-1.992.703-.493.464-.778 1.125-.852 1.972zm9.145-2.32c-.168-.097-.352-.168-.547-.211-.196-.047-.41-.07-.645-.07-.84 0-1.484.273-1.933.82-.45.543-.672 1.324-.672 2.344v4.754h-1.488v-9.024h1.488v1.403c.312-.547.719-.953 1.219-1.215.5-.27 1.105-.402 1.82-.402.101 0 .215.007.34.023.121.012.257.027.41.055z" transform="scale(1.3333333)"/>
  <path id="path11" d="m158.062 182.938v4.406h2.61c.875 0 1.523-.18 1.941-.539.426-.367.637-.922.637-1.668 0-.754-.211-1.305-.637-1.66-.418-.36-1.066-.539-1.941-.539zm0-4.95v3.629h2.411c.793 0 1.382-.148 1.769-.445.395-.301.59-.758.59-1.371 0-.606-.195-1.059-.59-1.36-.387-.3-.976-.453-1.769-.453zm-1.628-1.336h4.16c1.238 0 2.195.258 2.867.774.672.515 1.008 1.25 1.008 2.199 0 .734-.172 1.32-.516 1.758-.344.433-.851.707-1.515.812.8.172 1.421.532 1.859 1.078.449.543.672 1.223.672 2.039 0 1.075-.367 1.907-1.098 2.493-.73.582-1.769.875-3.117.875h-4.32zm15.359 7.493c-1.199 0-2.031.136-2.492.41-.461.273-.692.742-.692 1.402 0 .527.172.945.516 1.258.348.305.82.461 1.418.461.82 0 1.48-.293 1.973-.871.5-.586.75-1.364.75-2.328v-.332zm2.953-.614v5.149h-1.48v-1.368c-.34.547-.762.954-1.266 1.215-.504.258-1.121.387-1.852.387-.925 0-1.66-.258-2.207-.773-.543-.52-.816-1.215-.816-2.086 0-1.016.34-1.782 1.016-2.297.683-.516 1.699-.774 3.047-.774h2.078v-.144c0-.684-.227-1.207-.676-1.578-.445-.375-1.074-.567-1.887-.567-.515 0-1.015.063-1.508.188-.488.121-.957.308-1.41.555v-1.368c.543-.211 1.07-.367 1.582-.468.508-.11 1.008-.161 1.488-.161 1.305 0 2.282.336 2.926 1.016.645.676.965 1.699.965 3.074zm8.809-3.609v1.402c-.418-.215-.856-.375-1.305-.48-.453-.11-.918-.164-1.402-.164-.739 0-1.289.113-1.66.34-.368.226-.547.562-.547 1.015 0 .344.129.613.394.813.262.195.793.379 1.586.554l.508.114c1.051.226 1.801.546 2.238.961.445.406.672.98.672 1.714 0 .84-.336 1.5-1 1.989-.66.492-1.57.734-2.73.734-.485 0-.989-.047-1.516-.144-.523-.09-1.07-.231-1.652-.418v-1.532c.547.285 1.086.5 1.621.645.531.14 1.054.211 1.578.211.699 0 1.234-.121 1.609-.356.379-.242.567-.582.567-1.015 0-.403-.137-.711-.411-.926-.269-.215-.863-.422-1.781-.621l-.515-.121c-.918-.196-1.582-.489-1.993-.887-.406-.402-.609-.953-.609-1.652 0-.848.301-1.504.902-1.965.602-.461 1.453-.692 2.559-.692.551 0 1.066.039 1.547.121.484.079.93.2 1.34.36zm2.843-.266h1.481v9.024h-1.481zm0-3.511h1.481v1.878h-1.481zm10.336 3.777v1.402c-.418-.215-.855-.375-1.304-.48-.453-.11-.918-.164-1.403-.164-.734 0-1.289.113-1.66.34-.363.226-.547.562-.547 1.015 0 .344.133.613.395.813.262.195.793.379 1.586.554l.508.114c1.054.226 1.8.546 2.242.961.445.406.668.98.668 1.714 0 .84-.332 1.5-1 1.989-.66.492-1.571.734-2.731.734-.484 0-.988-.047-1.515-.144-.52-.09-1.071-.231-1.653-.418v-1.532c.551.285 1.09.5 1.621.645.532.14 1.059.211 1.579.211.699 0 1.234-.121 1.613-.356.375-.242.562-.582.562-1.015 0-.403-.136-.711-.41-.926-.269-.215-.863-.422-1.781-.621l-.516-.121c-.918-.196-1.582-.489-1.988-.887-.41-.402-.613-.953-.613-1.652 0-.848.301-1.504.902-1.965.602-.461 1.453-.692 2.563-.692.546 0 1.062.039 1.546.121.481.079.93.2 1.336.36z" transform="scale(1.3333333)"/>
  <path id="path12" d="m-79.293-83.141v18.293" fill="none" stroke="#000" stroke-width="2.657" transform="matrix(0 -1.3333333 -1.3333333 0 0 0)"/>
  <path id="path13" d="m-75.543-61.098c0 2.071-1.68 3.75-3.75 3.75s-3.75-1.679-3.75-3.75c0-2.07 1.68-3.75 3.75-3.75s3.75 1.68 3.75 3.75z" fill="none" stroke="#000" stroke-linecap="square" stroke-width="2.657" transform="matrix(0 -1.3333333 -1.3333333 0 0 0)"/>
  <path id="path14" d="m4.277 57.066h1.629v5.082l5.395-5.082h2.097l-5.972 5.606 6.398 6.422h-2.144l-5.774-5.793v5.793h-1.629zm13.43 4.043c-.793 0-1.422.313-1.887.934-.461.621-.691 1.469-.691 2.547 0 1.082.23 1.933.683 2.555.465.617 1.094.925 1.895.925.789 0 1.414-.312 1.879-.933.461-.625.691-1.473.691-2.547 0-1.067-.23-1.914-.691-2.535-.465-.629-1.09-.946-1.879-.946zm0-1.257c1.289 0 2.301.421 3.039 1.257.734.84 1.102 2 1.102 3.481 0 1.476-.368 2.637-1.102 3.48-.738.84-1.75 1.258-3.039 1.258-1.293 0-2.309-.418-3.047-1.258-.73-.843-1.094-2.004-1.094-3.48 0-1.481.364-2.641 1.094-3.481.738-.836 1.754-1.257 3.047-1.257zm6.598-3.293h1.484v12.535h-1.484zm4.586 0h1.48v12.535h-1.48zm12.3 7.652v.727h-6.816c.066 1.019.371 1.8.922 2.335.551.532 1.32.797 2.301.797.57 0 1.121-.07 1.652-.207.539-.14 1.07-.351 1.598-.629v1.403c-.536.222-1.078.394-1.637.515-.559.118-1.125.176-1.699.176-1.442 0-2.582-.418-3.426-1.258-.836-.836-1.258-1.968-1.258-3.398 0-1.477.399-2.649 1.195-3.512.801-.871 1.875-1.308 3.231-1.308 1.211 0 2.172.394 2.875 1.179.711.778 1.062 1.84 1.062 3.18zm-1.48-.434c-.012-.812-.238-1.457-.688-1.941-.437-.484-1.023-.727-1.753-.727-.829 0-1.493.235-1.993.703-.492.465-.777 1.126-.851 1.973zm3.859-7.218h1.489v7.402l4.425-3.891h1.891l-4.785 4.223 4.988 4.801h-1.933l-4.586-4.406v4.406h-1.489zm11.078.949v2.562h3.051v1.153h-3.051v4.898c0 .734.098 1.207.297 1.418.203.211.614.316 1.235.316h1.519v1.239h-1.519c-1.145 0-1.934-.211-2.371-.637-.434-.43-.653-1.207-.653-2.336v-4.898h-1.086v-1.153h1.086v-2.562zm8.5 3.601c-.796 0-1.425.313-1.886.934s-.692 1.469-.692 2.547c0 1.082.227 1.933.684 2.555.461.617 1.094.925 1.894.925.79 0 1.414-.312 1.875-.933.461-.625.696-1.473.696-2.547 0-1.067-.235-1.914-.696-2.535-.461-.629-1.085-.946-1.875-.946zm0-1.257c1.29 0 2.301.421 3.036 1.257.738.84 1.105 2 1.105 3.481 0 1.476-.367 2.637-1.105 3.48-.735.84-1.746 1.258-3.036 1.258-1.296 0-2.312-.418-3.046-1.258-.731-.843-1.098-2.004-1.098-3.48 0-1.481.367-2.641 1.098-3.481.734-.836 1.75-1.257 3.046-1.257zm11.825 1.605c-.164-.098-.348-.168-.547-.211-.192-.047-.406-.07-.645-.07-.836 0-1.48.273-1.933.82-.446.543-.668 1.324-.668 2.344v4.754h-1.492v-9.024h1.492v1.403c.312-.547.715-.953 1.215-1.215.5-.27 1.109-.406 1.82-.406.105 0 .215.011.34.027.125.008.261.027.41.055z" transform="scale(1.3333333)"/>
  <path id="path15" d="m178.797 15.922v4.785h-1.488v-12.457h1.488v1.371c.312-.539.703-.937 1.176-1.195.48-.262 1.05-.395 1.711-.395 1.093 0 1.984.438 2.664 1.305.687.871 1.031 2.016 1.031 3.434s-.344 2.562-1.031 3.433c-.68.867-1.571 1.305-2.664 1.305-.661 0-1.231-.129-1.711-.387-.473-.266-.864-.664-1.176-1.199zm5.043-3.152c0-1.09-.223-1.946-.676-2.563-.445-.621-1.059-.934-1.844-.934s-1.402.313-1.855.934c-.445.617-.668 1.473-.668 2.563 0 1.089.223 1.949.668 2.57.453.617 1.07.926 1.855.926s1.399-.309 1.844-.926c.453-.621.676-1.481.676-2.57z" transform="scale(1.3333333)"/>
  <path id="path16" d="m234.062 13.156v5.446h-1.48v-5.399c0-.851-.168-1.492-.5-1.918-.336-.422-.832-.633-1.5-.633-.801 0-1.43.254-1.894.762-.461.512-.692 1.207-.692 2.09v5.098h-1.492v-9.024h1.492v1.402c.356-.542.77-.949 1.25-1.214.481-.27 1.039-.403 1.668-.403 1.035 0 1.82.321 2.352.965.531.641.796 1.582.796 2.828z" transform="scale(1.3333333)"/>
  <path id="path17" d="m238.5 3.105v3.266h3.262v.996h-3.262v3.262h-.984v-3.262h-3.266v-.996h3.266v-3.266zm10.055 0v3.266h3.261v.996h-3.261v3.262h-.985v-3.262h-3.265v-.996h3.265v-3.266z" transform="scale(1.3333333)"/>
  <path id="path18" d="m115.23 13.156v5.446h-1.484v-5.399c0-.851-.164-1.492-.5-1.918-.332-.422-.832-.633-1.496-.633-.801 0-1.434.254-1.895.762-.46.512-.691 1.207-.691 2.09v5.098h-1.492v-9.024h1.492v1.402c.352-.542.77-.949 1.246-1.214.485-.27 1.039-.403 1.668-.403 1.039 0 1.82.321 2.356.965.531.641.796 1.582.796 2.828z" transform="scale(1.3333333)"/>
  <path id="path19" d="m119.664 3.105v3.266h3.266v.996h-3.266v3.262h-.984v-3.262h-3.262v-.996h3.262v-3.266z" transform="scale(1.3333333)"/>
  <path id="path20" d="m254.645 85.039h-79.723v2.656h1.328l-3.988 7.973-3.985-7.973h1.328v-6.64h-37.207v3.984l-34.546-25.246 34.546-23.918v3.988h122.247z" fill="#c0c0c0" fill-rule="evenodd" stroke="#000" stroke-width=".88" transform="scale(1.3333333)"/>
  <path id="path21" d="m172.262 135.531s0 2.211 0-13.289c0-15.496 11.07-18.601 18.601-18.601h41.192v-3.985l22.59 11.957-22.59 13.289v-3.988s-34.766 0-38.532 0c-3.765 0-3.988 5.316-3.988 5.316v9.301z" fill="#fff" fill-rule="evenodd" stroke="#000" stroke-width=".882" transform="scale(1.3333333)"/>
  <path id="path22" d="m174.922 111.613v-6.644h1.328l-3.988-7.973-3.985 7.973h1.328v30.562h5.317" fill="#fff" fill-rule="evenodd" stroke="#000" stroke-linecap="round" stroke-width=".88" transform="scale(1.3333333)"/>
  <path id="path23" d="m169.605 96.996-70.421 61.125" fill="none" stroke="#000" stroke-width="1.244" transform="scale(1.3333333)"/>
  <path id="path24" d="m186.41 106.23h1.625v10.657h5.86v1.371h-7.485zm12.332 4.043c-.793 0-1.422.313-1.883.934-.464.617-.695 1.469-.695 2.547s.231 1.93.688 2.555c.46.617 1.089.925 1.89.925.789 0 1.418-.312 1.879-.933.461-.625.691-1.473.691-2.547 0-1.07-.23-1.914-.691-2.539s-1.09-.942-1.879-.942zm0-1.257c1.289 0 2.305.422 3.039 1.257.735.84 1.102 2 1.102 3.481 0 1.476-.367 2.637-1.102 3.48-.734.84-1.75 1.258-3.039 1.258-1.293 0-2.308-.418-3.043-1.258-.73-.843-1.097-2.004-1.097-3.48 0-1.481.367-2.641 1.097-3.481.735-.835 1.75-1.257 3.043-1.257zm.758-3.262h1.637v1.629h-1.637zm-3.148 0h1.632v1.629h-1.632zm15.484 3.828v1.383c-.418-.231-.84-.403-1.266-.516-.418-.117-.843-.176-1.273-.176-.961 0-1.707.305-2.238.918-.532.61-.797 1.461-.797 2.563 0 1.101.265 1.957.797 2.57.531.606 1.277.91 2.238.91.43 0 .855-.054 1.273-.168.426-.117.848-.293 1.266-.523v1.367c-.414.195-.844.34-1.289.438-.442.093-.91.144-1.41.144-1.36 0-2.438-.426-3.239-1.281-.8-.856-1.199-2.008-1.199-3.457 0-1.473.403-2.629 1.207-3.473.813-.843 1.918-1.265 3.328-1.265.457 0 .903.05 1.336.144.434.094.856.235 1.266.422zm10.078 3.23v5.446h-1.48v-5.399c0-.851-.168-1.492-.5-1.918-.336-.421-.832-.636-1.5-.636-.801 0-1.43.257-1.895.765-.461.512-.691 1.207-.691 2.086v5.102h-1.493v-12.535h1.493v4.914c.355-.543.769-.949 1.25-1.219.48-.266 1.039-.402 1.668-.402 1.035 0 1.82.324 2.351.968.531.637.797 1.582.797 2.828zm10.676.563v.727h-6.817c.067 1.019.372 1.796.918 2.336.555.531 1.321.796 2.305.796.57 0 1.121-.07 1.652-.211.536-.136 1.067-.347 1.594-.625v1.399c-.531.226-1.074.398-1.633.515-.558.122-1.129.18-1.703.18-1.437 0-2.578-.418-3.422-1.258-.839-.836-1.257-1.972-1.257-3.398 0-1.477.398-2.648 1.191-3.516.801-.867 1.879-1.304 3.23-1.304 1.215 0 2.176.394 2.879 1.175.707.782 1.063 1.84 1.063 3.184zm-1.485-.434c-.007-.812-.238-1.461-.683-1.941-.442-.484-1.027-.727-1.758-.727-.824 0-1.488.235-1.988.704-.492.464-.778 1.125-.856 1.972zm9.145-2.32c-.164-.098-.348-.168-.547-.211-.191-.047-.406-.07-.644-.07-.836 0-1.481.273-1.934.82-.445.543-.668 1.324-.668 2.344v4.754h-1.492v-9.024h1.492v1.403c.313-.547.715-.953 1.215-1.219s1.109-.402 1.82-.402c.106 0 .215.007.34.027.125.008.262.027.41.055z" transform="scale(1.3333333)"/>
  <path id="path25" d="m22.906 167.098c.352.117.688.371 1.016.757.332.387.668.918 1 1.594l1.652 3.285h-1.75l-1.539-3.082c-.394-.808-.781-1.343-1.16-1.605-.371-.262-.879-.395-1.523-.395h-1.77v5.082h-1.629v-12.027h3.676c1.375 0 2.398.289 3.074.863.68.575 1.016 1.442 1.016 2.602 0 .758-.176 1.387-.531 1.887-.348.5-.86.843-1.532 1.039zm-4.074-5.051v4.269h2.047c.781 0 1.375-.179 1.769-.543.403-.363.606-.898.606-1.601s-.203-1.234-.606-1.586c-.394-.359-.988-.539-1.769-.539zm16.75 5.808v.723h-6.816c.062 1.02.371 1.801.918 2.336.554.531 1.32.801 2.304.801.571 0 1.117-.07 1.653-.211.535-.141 1.066-.348 1.593-.629v1.402c-.531.227-1.078.399-1.636.516-.559.117-1.125.176-1.7.176-1.437 0-2.582-.418-3.421-1.254-.84-.84-1.258-1.973-1.258-3.403 0-1.476.398-2.648 1.191-3.511.801-.871 1.879-1.305 3.231-1.305 1.214 0 2.171.391 2.875 1.176.711.777 1.066 1.84 1.066 3.183zm-1.484-.437c-.012-.809-.239-1.457-.684-1.941-.441-.485-1.027-.723-1.758-.723-.828 0-1.488.23-1.988.699-.496.469-.781 1.125-.856 1.973zm3.859-7.219h1.492v7.406l4.422-3.894h1.895l-4.786 4.223 4.985 4.8h-1.934l-4.582-4.406v4.406h-1.492zm12.52 4.555c-.793 0-1.422.308-1.883.934-.465.617-.696 1.464-.696 2.546 0 1.078.231 1.93.688 2.551.461.617 1.09.93 1.891.93.789 0 1.418-.313 1.878-.938.461-.621.692-1.468.692-2.543 0-1.07-.231-1.918-.692-2.539-.46-.629-1.089-.941-1.878-.941zm0-1.258c1.289 0 2.3.418 3.039 1.258.734.836 1.101 1.996 1.101 3.48 0 1.477-.367 2.637-1.101 3.481-.739.836-1.75 1.254-3.039 1.254-1.293 0-2.309-.418-3.043-1.254-.731-.844-1.098-2.004-1.098-3.481 0-1.484.367-2.644 1.098-3.48.734-.84 1.75-1.258 3.043-1.258zm13.625 1.949c.371-.668.812-1.156 1.328-1.476.515-.317 1.125-.473 1.82-.473.941 0 1.668.328 2.176.988.512.657.765 1.59.765 2.805v5.445h-1.488v-5.394c0-.867-.156-1.508-.461-1.926-.304-.422-.773-.629-1.402-.629-.766 0-1.375.254-1.82.766-.446.508-.668 1.203-.668 2.086v5.097h-1.493v-5.394c0-.871-.152-1.512-.457-1.926-.308-.422-.781-.629-1.418-.629-.757 0-1.359.258-1.804.774-.446.507-.668 1.203-.668 2.078v5.097h-1.492v-9.023h1.492v1.402c.336-.551.742-.961 1.215-1.222.472-.266 1.035-.395 1.683-.395.656 0 1.211.164 1.668.5.461.332.805.816 1.024 1.449zm15.523 2.789c0-1.093-.223-1.945-.676-2.562-.445-.625-1.058-.938-1.844-.938-.785 0-1.402.313-1.855.938-.445.617-.668 1.469-.668 2.562 0 1.09.223 1.946.668 2.567.453.621 1.07.929 1.855.929.786 0 1.399-.308 1.844-.929.453-.621.676-1.477.676-2.567zm-5.043-3.152c.313-.535.703-.934 1.176-1.191.48-.266 1.047-.395 1.711-.395 1.093 0 1.984.434 2.664 1.305.687.871 1.031 2.015 1.031 3.433s-.344 2.559-1.031 3.43c-.68.871-1.571 1.305-2.664 1.305-.664 0-1.231-.129-1.711-.387-.473-.262-.863-.664-1.176-1.199v1.351h-1.488v-12.535h1.488zm9.039-1.371h1.484v9.023h-1.484zm0-3.512h1.484v1.879h-1.484zm12.086 7.09v5.445h-1.48v-5.394c0-.856-.168-1.496-.5-1.918-.336-.426-.832-.637-1.5-.637-.801 0-1.43.254-1.895.766-.461.508-.691 1.203-.691 2.086v5.097h-1.493v-9.023h1.493v1.402c.355-.543.769-.945 1.25-1.215.48-.269 1.039-.402 1.668-.402 1.035 0 1.82.32 2.351.965.531.641.797 1.582.797 2.828zm7.059.91c-1.2 0-2.028.137-2.489.41-.465.278-.695.743-.695 1.403 0 .527.172.945.516 1.258.351.304.824.46 1.418.46.824 0 1.48-.292 1.972-.871.5-.586.75-1.363.75-2.328v-.332zm2.957-.609v5.144h-1.485v-1.367c-.336.547-.758.953-1.265 1.215-.504.258-1.121.387-1.852.387-.922 0-1.66-.258-2.207-.774-.543-.519-.812-1.215-.812-2.086 0-1.015.336-1.781 1.015-2.297.68-.515 1.695-.773 3.043-.773h2.078v-.144c0-.68-.222-1.207-.676-1.579-.445-.375-1.074-.562-1.886-.562-.516 0-1.016.058-1.504.184-.488.124-.961.308-1.41.554v-1.367c.543-.211 1.066-.367 1.578-.469.512-.105 1.008-.16 1.492-.16 1.305 0 2.277.336 2.922 1.016.644.676.969 1.703.969 3.078zm4.519-6.438v2.559h3.055v1.152h-3.055v4.899c0 .738.098 1.211.297 1.418.203.211.617.316 1.234.316h1.524v1.238h-1.524c-1.144 0-1.933-.211-2.371-.632-.433-.43-.652-1.211-.652-2.34v-4.899h-1.086v-1.152h1.086v-2.559zm5.004 2.559h1.481v9.023h-1.481zm0-3.512h1.481v1.879h-1.481zm8.078 4.555c-.793 0-1.422.308-1.883.934-.464.617-.695 1.464-.695 2.546 0 1.078.231 1.93.688 2.551.461.617 1.089.93 1.89.93.789 0 1.418-.313 1.879-.938.461-.621.692-1.468.692-2.543 0-1.07-.231-1.918-.692-2.539-.461-.629-1.09-.941-1.879-.941zm0-1.258c1.289 0 2.305.418 3.039 1.258.735.836 1.102 1.996 1.102 3.48 0 1.477-.367 2.637-1.102 3.481-.734.836-1.75 1.254-3.039 1.254-1.293 0-2.308-.418-3.043-1.254-.73-.844-1.097-2.004-1.097-3.481 0-1.484.367-2.644 1.097-3.48.735-.84 1.75-1.258 3.043-1.258zm14.102 3.793v5.445h-1.485v-5.394c0-.856-.164-1.496-.5-1.918-.332-.426-.832-.637-1.496-.637-.8 0-1.433.254-1.894.766-.461.508-.692 1.203-.692 2.086v5.097h-1.492v-9.023h1.492v1.402c.352-.543.77-.945 1.246-1.215.485-.269 1.04-.402 1.668-.402 1.039 0 1.821.32 2.356.965.531.641.797 1.582.797 2.828z" transform="scale(1.3333333)"/>
  <path id="path26" d="m142.977 54.41h7.605v1.367h-5.977v3.563h5.727v1.367h-5.727v4.359h6.122v1.372h-7.75zm10.363-.508h1.48v12.536h-1.48zm12.301 7.653v.726h-6.817c.067 1.02.371 1.797.918 2.336.555.531 1.32.797 2.305.797.57 0 1.121-.07 1.652-.211.535-.137 1.071-.348 1.594-.629v1.403c-.531.226-1.074.398-1.633.515-.558.121-1.125.18-1.703.18-1.437 0-2.578-.422-3.422-1.258-.84-.84-1.258-1.973-1.258-3.398 0-1.481.399-2.649 1.192-3.516.801-.867 1.879-1.305 3.23-1.305 1.215 0 2.176.395 2.879 1.176.707.781 1.063 1.84 1.063 3.184zm-1.485-.434c-.008-.812-.238-1.461-.683-1.941-.442-.485-1.024-.727-1.754-.727-.828 0-1.492.235-1.992.699-.493.469-.778 1.125-.856 1.977zm3.86-7.219h1.492v7.403l4.422-3.891h1.894l-4.785 4.223 4.988 4.801h-1.933l-4.586-4.407v4.407h-1.492zm11.078.95v2.562h3.054v1.152h-3.054v4.899c0 .734.101 1.207.301 1.418.203.207.613.312 1.23.312h1.523v1.243h-1.523c-1.145 0-1.934-.211-2.367-.637-.438-.43-.653-1.207-.653-2.336v-4.899h-1.089v-1.152h1.089v-2.562zm10.234 3.949c-.168-.098-.351-.168-.551-.211-.191-.047-.406-.074-.644-.074-.836 0-1.481.277-1.934.824-.445.543-.668 1.324-.668 2.344v4.754h-1.488v-9.024h1.488v1.402c.313-.55.719-.953 1.219-1.218.5-.266 1.105-.403 1.82-.403.102 0 .215.008.336.024.125.011.262.031.414.058zm4.688-.348c-.793 0-1.422.313-1.887.934-.461.617-.691 1.468-.691 2.547 0 1.078.23 1.929.683 2.554.465.617 1.094.926 1.895.926.789 0 1.414-.312 1.879-.934.46-.625.691-1.472.691-2.546 0-1.071-.231-1.914-.691-2.539-.465-.629-1.09-.942-1.879-.942zm0-1.258c1.289 0 2.3.418 3.039 1.258.734.836 1.101 1.996 1.101 3.481 0 1.476-.367 2.636-1.101 3.48-.739.836-1.75 1.258-3.039 1.258-1.293 0-2.309-.422-3.047-1.258-.731-.844-1.094-2.004-1.094-3.48 0-1.485.363-2.645 1.094-3.481.738-.84 1.754-1.258 3.047-1.258zm14.097 3.797v5.446h-1.48v-5.399c0-.855-.168-1.492-.5-1.918s-.832-.637-1.5-.637c-.797 0-1.43.254-1.891.766s-.695 1.207-.695 2.086v5.102h-1.488v-9.024h1.488v1.402c.355-.543.773-.949 1.25-1.218.484-.266 1.039-.403 1.668-.403 1.035 0 1.82.325 2.351.969.532.637.797 1.582.797 2.828zm10.676.563v.726h-6.816c.066 1.02.371 1.797.922 2.336.55.531 1.32.797 2.3.797.571 0 1.121-.07 1.653-.211.539-.137 1.07-.348 1.597-.629v1.403c-.535.226-1.078.398-1.636.515-.559.121-1.125.18-1.7.18-1.441 0-2.582-.422-3.425-1.258-.836-.84-1.258-1.973-1.258-3.398 0-1.481.398-2.649 1.195-3.516.801-.867 1.875-1.305 3.231-1.305 1.21 0 2.171.395 2.875 1.176.711.781 1.062 1.84 1.062 3.184zm-1.48-.434c-.012-.812-.239-1.461-.688-1.941-.437-.485-1.023-.727-1.754-.727-.828 0-1.492.235-1.992.699-.492.469-.777 1.125-.852 1.977zm11.414-.129v5.446h-1.481v-5.399c0-.855-.168-1.492-.5-1.918s-.832-.637-1.5-.637c-.801 0-1.43.254-1.89.766-.465.512-.696 1.207-.696 2.086v5.102h-1.488v-9.024h1.488v1.402c.356-.543.774-.949 1.25-1.218.485-.266 1.039-.403 1.668-.403 1.035 0 1.821.325 2.352.969.531.637.797 1.582.797 2.828z" transform="scale(1.3333333)"/>
  <path id="path27" d="m271.918 143.504c1.328 0 0-6.645 6.644-6.645v-107.629c-6.644 0-5.316-5.312-6.644-5.312z" transform="scale(1.3333333)"/>
  <path id="path28" d="m201.496 150.148c0-6.644 6.641-5.316 6.641-6.644h-54.477c0 1.328 5.317 0 5.317 6.644z" transform="scale(1.3333333)"/>
  <path id="path29" d="m85.895 143.504c-1.329 0 0-6.645-6.645-6.645v-107.629c6.645 0 5.316-5.312 6.645-5.312z" transform="scale(1.3333333)"/>
 </g>
</svg>
